<?xml version="1.0" encoding="UTF-8"?>
<svg width="170px" height="180px" viewBox="0 0 170 180" version="1.1" xmlns="http://www.w3.org/2000/svg" xmlns:xlink="http://www.w3.org/1999/xlink">
    <!-- Generator: Sketch 52.6 (67491) - http://www.bohemiancoding.com/sketch -->
    <title>LOGO</title>
    <desc>Created with Sketch.</desc>
    <defs>
        <rect id="path-1" x="0" y="0" width="150" height="160"></rect>
        <filter x="-12.3%" y="-7.2%" width="124.7%" height="123.1%" filterUnits="objectBoundingBox" id="filter-2">
            <feOffset dx="0" dy="7" in="SourceAlpha" result="shadowOffsetOuter1"></feOffset>
            <feGaussianBlur stdDeviation="5" in="shadowOffsetOuter1" result="shadowBlurOuter1"></feGaussianBlur>
            <feColorMatrix values="0 0 0 0 0.9137255   0 0 0 0 0.11764706   0 0 0 0 0.3882353  0 0 0 0.4 0" type="matrix" in="shadowBlurOuter1"></feColorMatrix>
        </filter>
    </defs>
    <g id="Welcome" stroke="none" stroke-width="1" fill="none" fill-rule="evenodd">
        <g id="DASHBOARD---APPLiCATIONS---FORM" transform="translate(-302.000000, -116.000000)">
            <g id="FORM" transform="translate(274.000000, 82.000000)">
                <g id="LOGO" transform="translate(38.000000, 37.000000)">
                    <g id="Rectangle">
                        <use fill="black" fill-opacity="1" filter="url(#filter-2)" xlink:href="#path-1"></use>
                        <use fill="#E91E63" fill-rule="evenodd" xlink:href="#path-1"></use>
                    </g>
                    <g id="keypad" transform="translate(48.000000, 53.000000)" fill="#FFFFFF" fill-rule="nonzero">
                        <path d="M29.25675,40.5 L24.7455,40.5 C22.27275,40.5 20.25,42.52275 20.25,44.99325 L20.25,49.4955 C20.25,51.97275 22.275,54 24.75225,54 L29.24775,54 C31.725,54 33.75,51.97275 33.75,49.49775 L33.75,44.9955 C33.75,42.52275 31.72725,40.5 29.25675,40.5 Z M9.00675,20.25 L4.49325,20.25 C2.02275,20.25 2.22044605e-16,22.27275 2.22044605e-16,24.74325 L2.22044605e-16,29.2545 C2.22044605e-16,31.72725 2.02275,33.75 4.49325,33.75 L9.0045,33.75 C11.47725,33.75 13.5,31.72725 13.5,29.25675 L13.5,24.7455 C13.5,22.27275 11.47725,20.25 9.00675,20.25 Z M9.00675,0 L4.49325,0 C2.02275,0 2.22044605e-16,2.02275 2.22044605e-16,4.49325 L2.22044605e-16,9.0045 C2.22044605e-16,11.47725 2.02275,13.5 4.49325,13.5 L9.0045,13.5 C11.47725,13.5 13.5,11.47725 13.5,9.00675 L13.5,4.49325 C13.5,2.02275 11.47725,4.99600361e-16 9.00675,0 Z M9.00675,40.5 L4.49325,40.5 C2.02275,40.5 2.22044605e-16,42.52275 2.22044605e-16,44.99325 L2.22044605e-16,49.4955 C2.22044605e-16,51.97275 2.025,54 4.50225,54 L8.99775,54 C11.475,54 13.5,51.97275 13.5,49.49775 L13.5,44.9955 C13.5,42.52275 11.47725,40.5 9.00675,40.5 Z M49.50675,0 L44.9955,0 C42.52275,0 40.5,2.02275 40.5,4.49325 L40.5,9.0045 C40.5,11.47725 42.52275,13.5 44.99325,13.5 L49.5045,13.5 C51.97725,13.5 54,11.47725 54,9.00675 L54,4.49325 C54,2.02275 51.97725,4.99600361e-16 49.50675,0 Z M49.50675,20.25 L44.9955,20.25 C42.52275,20.25 40.5,22.27275 40.5,24.74325 L40.5,29.2545 C40.5,31.72725 42.52275,33.75 44.99325,33.75 L49.5045,33.75 C51.97725,33.75 54,31.72725 54,29.25675 L54,24.7455 C54,22.27275 51.97725,20.25 49.50675,20.25 Z M49.50675,40.5 L44.9955,40.5 C42.52275,40.5 40.5,42.52275 40.5,44.99325 L40.5,49.4955 C40.5,51.97275 42.525,54 45.00225,54 L49.49775,54 C51.975,54 54,51.97275 54,49.49775 L54,44.9955 C54,42.52275 51.97725,40.5 49.50675,40.5 Z M29.25675,0 L24.7455,0 C22.27275,0 20.25,2.02275 20.25,4.49325 L20.25,9.0045 C20.25,11.47725 22.27275,13.5 24.74325,13.5 L29.2545,13.5 C31.72725,13.5 33.75,11.47725 33.75,9.00675 L33.75,4.49325 C33.75,2.02275 31.72725,4.99600361e-16 29.25675,4.99600361e-16 Z M29.25675,20.25 L24.7455,20.25 C22.27275,20.25 20.25,22.27275 20.25,24.74325 L20.25,29.2545 C20.25,31.72725 22.27275,33.75 24.74325,33.75 L29.2545,33.75 C31.72725,33.75 33.75,31.72725 33.75,29.25675 L33.75,24.7455 C33.75,22.27275 31.72725,20.25 29.25675,20.25 Z" id="Shape"></path>
                    </g>
                </g>
            </g>
        </g>
    </g>
</svg>